<?xml version="1.0" encoding="UTF-8"?>
<svg width="200px" height="100px" viewBox="0 0 200 100" version="1.1" xmlns="http://www.w3.org/2000/svg" xmlns:xlink="http://www.w3.org/1999/xlink">
    <!-- Generator: Sketch 40.1 (33804) - http://www.bohemiancoding.com/sketch -->
    <title>logo_burner_wordmark</title>
    <desc>Created with Sketch.</desc>
    <defs></defs>
    <g id="Page-1" stroke="none" stroke-width="1" fill="none" fill-rule="evenodd">
        <g id="logo_burner_wordmark" fill="#EF580C">
            <path d="M20.6075,69 C29.8475,69 32.8175,65.59 33.3675,61.245 L33.9725,56.515 C34.0275,56.13 34.0275,55.69 34.0275,55.415 C34.0275,52.665 32.2125,50.355 28.2525,49.42 C32.0475,48.32 33.6425,46.175 34.0275,43.04 L34.4675,39.63 C34.5225,39.19 34.5775,38.75 34.5775,38.42 C34.5775,34.57 31.6075,31.6 23.4675,31.6 L14.0625,31.6 C13.5125,31.6 13.2375,31.875 13.1825,32.425 L8.7825,68.175 C8.7275,68.835 9.0575,69 9.4975,69 L20.6075,69 Z M22.6975,51.29 C28.1975,51.29 30.1225,53.16 30.1225,55.745 C30.1225,56.075 30.1225,56.35 30.0675,56.735 L29.5725,60.585 C29.1875,63.775 26.7125,65.755 20.8275,65.755 L13.0175,65.755 L14.7775,51.29 L22.6975,51.29 Z M23.2475,34.845 C28.5275,34.845 30.6175,36.44 30.6175,39.135 C30.6175,39.465 30.6175,39.795 30.5625,40.125 L30.1775,42.985 C29.7375,46.175 27.3725,48.21 22.0375,48.21 L15.1625,48.21 L16.8125,34.845 L23.2475,34.845 Z M48.7125,32.425 C48.7675,31.82 48.4375,31.6 47.9975,31.6 L45.6875,31.6 C45.0825,31.6 44.8625,31.875 44.8075,32.425 L41.2875,61.08 C41.2325,61.52 41.1775,62.07 41.1775,62.4 C41.1775,66.36 44.2025,69.44 52.2875,69.44 C61.5825,69.44 64.4975,65.81 65.0475,61.41 L68.6225,32.425 C68.6775,31.82 68.3475,31.6 67.9075,31.6 L65.5425,31.6 C64.9925,31.6 64.7725,31.875 64.7175,32.425 L61.1975,60.805 C60.8125,63.995 58.3925,66.085 52.5625,66.085 C47.2275,66.085 45.1375,64.38 45.1375,61.575 C45.1375,61.19 45.1925,60.805 45.2475,60.255 L48.7125,32.425 Z M87.4325,53.765 L88.7525,53.765 L93.8125,68.175 C93.9775,68.615 94.1425,69 94.6925,69 L97.0575,69 C97.6075,69 97.9925,68.67 97.8275,68.175 L92.5475,53.325 C97.8275,52.28 99.8075,49.42 100.2475,46.01 L100.9625,40.07 C101.0175,39.685 101.0175,39.245 101.0175,38.915 C101.0175,34.9 98.0475,31.6 89.9075,31.6 L79.1825,31.6 C78.6325,31.6 78.3575,31.875 78.3025,32.425 L73.9025,68.175 C73.8475,68.835 74.1775,69 74.6175,69 L76.9825,69 C77.5325,69 77.7525,68.725 77.8075,68.175 L79.5675,53.765 L87.4325,53.765 Z M89.7425,34.955 C95.1325,34.955 97.0575,36.715 97.0575,39.685 C97.0575,39.96 97.0575,40.29 97.0025,40.675 L96.4525,45.405 C96.0675,48.595 93.6475,50.465 87.7625,50.465 L80.0075,50.465 L81.9325,34.955 L89.7425,34.955 Z M134.4025,32.425 C134.4575,31.875 134.2925,31.6 133.7425,31.6 L131.5975,31.6 C131.0475,31.6 130.7725,31.875 130.7175,32.425 L127.1975,61.465 C127.0875,60.97 126.2625,58.99 125.8775,58.165 L114.2725,31.93 C114.1625,31.655 113.9425,31.6 113.5575,31.6 L111.6325,31.6 C111.0275,31.6 110.7525,31.875 110.6975,32.425 L106.2975,68.175 C106.2425,68.725 106.4625,69 107.0675,69 L109.1575,69 C109.7075,69 109.9275,68.725 109.9825,68.175 L113.5575,39.135 C113.8875,40.125 114.4925,41.72 114.9875,42.765 L126.4275,68.615 C126.5375,68.89 126.7575,69 127.1975,69 L129.1775,69 C129.7275,69 129.9475,68.725 130.0025,68.175 L134.4025,32.425 Z M160.2525,69 C160.8025,69 161.0775,68.78 161.1325,68.175 L161.3525,66.415 C161.4075,65.865 161.1875,65.645 160.5825,65.645 L144.3025,65.645 L146.1175,51.015 L160.8025,51.015 C161.3525,51.015 161.5725,50.795 161.6825,50.19 L161.9025,48.595 C162.0125,47.99 161.7375,47.77 161.1875,47.77 L146.5025,47.77 L148.0975,34.955 L163.7725,34.955 C164.3225,34.955 164.5975,34.735 164.6525,34.13 L164.8725,32.425 C164.9275,31.82 164.7075,31.6 164.1575,31.6 L145.3475,31.6 C144.7975,31.6 144.5225,31.875 144.4675,32.425 L140.0675,68.175 C140.0125,68.725 140.2325,69 140.7825,69 L160.2525,69 Z M182.4175,53.765 L183.7375,53.765 L188.7975,68.175 C188.9625,68.615 189.1275,69 189.6775,69 L192.0425,69 C192.5925,69 192.9775,68.67 192.8125,68.175 L187.5325,53.325 C192.8125,52.28 194.7925,49.42 195.2325,46.01 L195.9475,40.07 C196.0025,39.685 196.0025,39.245 196.0025,38.915 C196.0025,34.9 193.0325,31.6 184.8925,31.6 L174.1675,31.6 C173.6175,31.6 173.3425,31.875 173.2875,32.425 L168.8875,68.175 C168.8325,68.835 169.1625,69 169.6025,69 L171.9675,69 C172.5175,69 172.7375,68.725 172.7925,68.175 L174.5525,53.765 L182.4175,53.765 Z M184.7275,34.955 C190.1175,34.955 192.0425,36.715 192.0425,39.685 C192.0425,39.96 192.0425,40.29 191.9875,40.675 L191.4375,45.405 C191.0525,48.595 188.6325,50.465 182.7475,50.465 L174.9925,50.465 L176.9175,34.955 L184.7275,34.955 Z" id="BURNER"></path>
        </g>
    </g>
</svg>