<?xml version="1.0" encoding="UTF-8"?>
<svg width="200px" height="200px" viewBox="0 0 200 200" version="1.1" xmlns="http://www.w3.org/2000/svg" xmlns:xlink="http://www.w3.org/1999/xlink">
    <!-- Generator: Sketch 40.1 (33804) - http://www.bohemiancoding.com/sketch -->
    <title>logo_burner_knockout</title>
    <desc>Created with Sketch.</desc>
    <defs></defs>
    <g id="Page-1" stroke="none" stroke-width="1" fill="none" fill-rule="evenodd">
        <g id="logo_burner_knockout" fill="#FFFFFF">
            <g id="Group" transform="translate(16.000000, 3.000000)">
                <path d="M153.016,101.505547 C176.478,80.3125473 165.079,51.7125473 152.526,37.5975473 C151.299,36.2175473 149.243,36.3815473 149.107,38.2225473 C148.539,45.8785473 147.201,57.0595473 137.765,56.4665473 C134.144,56.2375473 133.138,55.3565473 131.266,53.4885473 C121.58,43.8015473 124.766,17.2375473 138.681,2.84754727 C139.914,1.57154727 138.205,-0.513452735 136.546,0.115547265 C124.415,4.70854727 98.925,21.0485473 113,76.2295473 C121.944,111.286547 120.561,120.419547 111.416,121.444547 C108.055,121.823547 105.571,120.897547 103.77,119.092547 C96.955,112.278547 99.809,101.995547 101.573,93.3005473 C104.641,78.2255473 97.612,67.0335473 90.588,59.9685473 C90.523,59.9035473 90.455,59.8445473 90.381,59.7895473 L88.423,58.3185473 C87.065,57.2995473 85.224,58.5975473 85.69,60.2305473 C87.606,66.9395473 86.346,77.7985473 73.484,94.3195473 C66.378,103.452547 61.881,112.803547 59.086,121.545547 C58.938,122.005547 58.697,122.737547 58.5,123.519547 C60.029,125.194547 61.662,126.913547 63.449,128.698547 C69.189,134.439547 74.34,138.777547 78.838,142.053547 C91.207,151.064547 98.636,152.055547 99.788,152.157547 C99.893,152.167547 99.946,152.169547 99.946,152.169547 C102.586,152.266547 106.188,150.737547 107.95,148.762547 L120.786,134.397547 C122.545,132.427547 125.893,131.835547 128.229,133.073547 L162.858,151.505547 C163.147,151.659547 163.421,151.845547 163.681,152.053547 C163.684,152.055547 163.687,152.075547 163.689,152.077547 C165.255,153.334547 166.225,155.487547 166.159,157.487547 L166.18,157.487547 C168.442,125.487547 131.207,121.205547 153.016,101.505547" id="Fill-7"></path>
                <path d="M56.1549938,148.144076 C56.1959938,141.380076 57.0179938,132.727076 59.7999938,123.269076 C41.7419938,103.481076 41.2979938,91.9680759 41.2979938,91.9680759 C41.1969938,89.3290759 42.7289938,85.7260759 44.7009938,83.9700759 L59.0629938,71.1260759 C61.0349938,69.3660759 61.6299938,66.0200759 60.3909938,63.6870759 L41.9559938,29.0530759 C40.7169938,26.7260759 38.3309938,24.9150759 33.8309938,25.0030759 C-5.73800619,25.0030759 0.334993806,67.4320759 0.334993806,67.4320759 C2.34799381,94.9910759 22.7809938,129.763076 43.1219938,150.106076 C47.3209938,154.306076 52.1369938,158.503076 57.3749938,162.547076 C57.3399938,162.387076 56.1039938,156.823076 56.1549938,148.144076" id="Fill-10"></path>
                <path d="M166.31452,155.951 C166.31552,153.936 165.41252,151.811 163.87252,150.557 C163.87052,150.555 163.86752,150.552 163.86452,150.55 C163.60752,150.341 163.33252,150.157 163.04152,150.002 L128.41252,131.57 C126.07652,130.332 122.72852,130.927 120.96952,132.894 L108.13352,147.259 C106.37152,149.234 102.76952,150.763 100.12952,150.666 C100.12952,150.666 100.07652,150.664 99.9715204,150.654 C98.8195204,150.552 91.3905204,149.562 79.0215204,140.55 C74.5235204,137.274 69.3725204,132.936 63.6325204,127.195 C61.8455204,125.41 60.2125204,123.691 58.6835204,122.016 C58.6785204,122.011 58.6735204,122.005 58.6685204,122 C55.8865204,131.459 55.0425204,140.112 55.0015204,146.875 C54.9505204,155.554 56.1995204,161.118 56.1995204,161.278 L56.1995204,161.281 C56.1995204,161.281 56.2235204,161.282 56.2245204,161.283 C71.9585204,173.426 91.5305204,184.14 109.76452,189.006 C114.87052,190.369 119.87752,191.274 124.66252,191.623 C124.66252,191.623 124.95152,191.645 125.46852,191.658 C126.82752,191.695 129.81052,191.673 133.58952,191.047 C144.55152,189.232 162.19552,182.328 166.23552,156.947 C166.24152,156.911 166.23952,156.873 166.24452,156.836 C166.28552,156.545 166.31352,156.25 166.31452,155.951" id="Fill-11"></path>
            </g>
        </g>
    </g>
</svg>