<?xml version="1.0" encoding="UTF-8"?>
<svg width="200px" height="100px" viewBox="0 0 200 100" version="1.1" xmlns="http://www.w3.org/2000/svg" xmlns:xlink="http://www.w3.org/1999/xlink">
    <!-- Generator: Sketch 40.1 (33804) - http://www.bohemiancoding.com/sketch -->
    <title>logo_burner_combo</title>
    <desc>Created with Sketch.</desc>
    <defs></defs>
    <g id="Page-1" stroke="none" stroke-width="1" fill="none" fill-rule="evenodd">
        <g id="logo_burner_combo">
            <path d="M76.37123,60 C82.32179,60 84.23447,57.80396 84.58867,55.00578 L84.97829,51.95966 C85.01371,51.71172 85.01371,51.42836 85.01371,51.25126 C85.01371,49.48026 83.84485,47.99262 81.29461,47.39048 C83.73859,46.68208 84.76577,45.3007 85.01371,43.28176 L85.29707,41.08572 C85.33249,40.80236 85.36791,40.519 85.36791,40.30648 C85.36791,37.82708 83.45523,35.9144 78.21307,35.9144 L72.15625,35.9144 C71.80205,35.9144 71.62495,36.0915 71.58953,36.4457 L68.75593,59.4687 C68.72051,59.89374 68.93303,60 69.21639,60 L76.37123,60 Z M77.71719,48.59476 C81.25919,48.59476 82.49889,49.79904 82.49889,51.46378 C82.49889,51.6763 82.49889,51.8534 82.46347,52.10134 L82.14469,54.58074 C81.89675,56.6351 80.30285,57.91022 76.51291,57.91022 L71.48327,57.91022 L72.61671,48.59476 L77.71719,48.59476 Z M78.07139,38.00418 C81.47171,38.00418 82.81767,39.03136 82.81767,40.76694 C82.81767,40.97946 82.81767,41.19198 82.78225,41.4045 L82.53431,43.24634 C82.25095,45.3007 80.72789,46.61124 77.29215,46.61124 L72.86465,46.61124 L73.92725,38.00418 L78.07139,38.00418 Z M94.47085,36.4457 C94.50627,36.05608 94.29375,35.9144 94.01039,35.9144 L92.52275,35.9144 C92.13313,35.9144 91.99145,36.0915 91.95603,36.4457 L89.68915,54.89952 C89.65373,55.18288 89.61831,55.53708 89.61831,55.7496 C89.61831,58.29984 91.56641,60.28336 96.77315,60.28336 C102.75913,60.28336 104.63639,57.94564 104.99059,55.11204 L107.29289,36.4457 C107.32831,36.05608 107.11579,35.9144 106.83243,35.9144 L105.30937,35.9144 C104.95517,35.9144 104.81349,36.0915 104.77807,36.4457 L102.51119,54.72242 C102.26325,56.77678 100.70477,58.12274 96.95025,58.12274 C93.51451,58.12274 92.16855,57.02472 92.16855,55.2183 C92.16855,54.97036 92.20397,54.72242 92.23939,54.36822 L94.47085,36.4457 Z M119.40653,50.18866 L120.25661,50.18866 L123.51525,59.4687 C123.62151,59.75206 123.72777,60 124.08197,60 L125.60503,60 C125.95923,60 126.20717,59.78748 126.10091,59.4687 L122.70059,49.9053 C126.10091,49.23232 127.37603,47.39048 127.65939,45.19444 L128.11985,41.36908 C128.15527,41.12114 128.15527,40.83778 128.15527,40.62526 C128.15527,38.0396 126.24259,35.9144 121.00043,35.9144 L114.09353,35.9144 C113.73933,35.9144 113.56223,36.0915 113.52681,36.4457 L110.69321,59.4687 C110.65779,59.89374 110.87031,60 111.15367,60 L112.67673,60 C113.03093,60 113.17261,59.8229 113.20803,59.4687 L114.34147,50.18866 L119.40653,50.18866 Z M120.89417,38.07502 C124.36533,38.07502 125.60503,39.20846 125.60503,41.12114 C125.60503,41.29824 125.60503,41.51076 125.56961,41.7587 L125.21541,44.80482 C124.96747,46.85918 123.40899,48.06346 119.61905,48.06346 L114.62483,48.06346 L115.86453,38.07502 L120.89417,38.07502 Z M149.65521,36.4457 C149.69063,36.0915 149.58437,35.9144 149.23017,35.9144 L147.84879,35.9144 C147.49459,35.9144 147.31749,36.0915 147.28207,36.4457 L145.01519,55.14746 C144.94435,54.82868 144.41305,53.55356 144.16511,53.02226 L136.69149,36.12692 C136.62065,35.94982 136.47897,35.9144 136.23103,35.9144 L134.99133,35.9144 C134.60171,35.9144 134.42461,36.0915 134.38919,36.4457 L131.55559,59.4687 C131.52017,59.8229 131.66185,60 132.05147,60 L133.39743,60 C133.75163,60 133.89331,59.8229 133.92873,59.4687 L136.23103,40.76694 C136.44355,41.4045 136.83317,42.43168 137.15195,43.10466 L144.51931,59.75206 C144.59015,59.92916 144.73183,60 145.01519,60 L146.29031,60 C146.64451,60 146.78619,59.8229 146.82161,59.4687 L149.65521,36.4457 Z M166.30261,60 C166.65681,60 166.83391,59.85832 166.86933,59.4687 L167.01101,58.33526 C167.04643,57.98106 166.90475,57.83938 166.51513,57.83938 L156.03081,57.83938 L157.19967,48.41766 L166.65681,48.41766 C167.01101,48.41766 167.15269,48.27598 167.22353,47.88636 L167.36521,46.85918 C167.43605,46.46956 167.25895,46.32788 166.90475,46.32788 L157.44761,46.32788 L158.47479,38.07502 L168.56949,38.07502 C168.92369,38.07502 169.10079,37.93334 169.13621,37.54372 L169.27789,36.4457 C169.31331,36.05608 169.17163,35.9144 168.81743,35.9144 L156.70379,35.9144 C156.34959,35.9144 156.17249,36.0915 156.13707,36.4457 L153.30347,59.4687 C153.26805,59.8229 153.40973,60 153.76393,60 L166.30261,60 Z M180.57687,50.18866 L181.42695,50.18866 L184.68559,59.4687 C184.79185,59.75206 184.89811,60 185.25231,60 L186.77537,60 C187.12957,60 187.37751,59.78748 187.27125,59.4687 L183.87093,49.9053 C187.27125,49.23232 188.54637,47.39048 188.82973,45.19444 L189.29019,41.36908 C189.32561,41.12114 189.32561,40.83778 189.32561,40.62526 C189.32561,38.0396 187.41293,35.9144 182.17077,35.9144 L175.26387,35.9144 C174.90967,35.9144 174.73257,36.0915 174.69715,36.4457 L171.86355,59.4687 C171.82813,59.89374 172.04065,60 172.32401,60 L173.84707,60 C174.20127,60 174.34295,59.8229 174.37837,59.4687 L175.51181,50.18866 L180.57687,50.18866 Z M182.06451,38.07502 C185.53567,38.07502 186.77537,39.20846 186.77537,41.12114 C186.77537,41.29824 186.77537,41.51076 186.73995,41.7587 L186.38575,44.80482 C186.13781,46.85918 184.57933,48.06346 180.78939,48.06346 L175.79517,48.06346 L177.03487,38.07502 L182.06451,38.07502 Z" id="BURNER" fill="#EF580C"></path>
            <g id="Group" transform="translate(3.000000, 20.000000)">
                <path d="M48.4306429,32.2491582 C55.8323452,25.5159655 52.2362321,16.4295072 48.2760595,11.9450541 C47.8889702,11.5066166 47.2403512,11.5587207 47.1974464,12.1436218 C47.018256,14.5759968 46.5961488,18.1282937 43.6193155,17.9398926 C42.4769762,17.8671374 42.1596071,17.5872364 41.5690357,16.9937572 C38.5133333,13.9161166 39.5184405,5.47651241 43.9082917,0.904689496 C44.2972738,0.499293662 43.758125,-0.163128213 43.23475,0.036710329 C39.4077083,1.4959447 31.3662202,6.68729887 35.8065476,24.2187624 C38.6281667,35.3566635 38.1918631,38.2582937 35.3068333,38.5839447 C34.2465179,38.7043562 33.462875,38.4101582 32.8947024,37.8366947 C30.7447321,35.6718301 31.6451012,32.4048353 32.2016012,29.6423614 C33.1694821,24.8529082 30.952,21.2971166 28.7360952,19.0525072 C28.7155893,19.0318562 28.6941369,19.0131114 28.6707917,18.9956374 L28.0530893,18.5282885 C27.6246726,18.2045437 27.043881,18.6169291 27.1908929,19.1357468 C27.7953452,21.267252 27.3978452,24.7172468 23.3401905,29.9661062 C21.0984167,32.8677364 19.6797202,35.838627 18.7979643,38.6160332 C18.7512738,38.7621791 18.675244,38.9947416 18.6130952,39.2431895 C19.0954583,39.775351 19.610631,40.3214916 20.1743869,40.888601 C21.9852202,42.7125645 23.6102381,44.0907832 25.02925,45.1315957 C28.931375,47.9944655 31.2750476,48.3093145 31.6384762,48.3417207 C31.6716012,48.3448978 31.6883214,48.3455332 31.6883214,48.3455332 C32.5211786,48.376351 33.6575238,47.8905749 34.2133929,47.263101 L38.2628452,42.6992207 C38.8177679,42.0733353 39.8739821,41.885252 40.6109345,42.2785749 L51.5355595,48.1345749 C51.6267321,48.183502 51.7131726,48.2425957 51.7951964,48.3086791 C51.7961429,48.3093145 51.7970893,48.3156687 51.7977202,48.3163041 C52.291756,48.7156635 52.5977679,49.3996895 52.5769464,50.0351062 L52.5835714,50.0351062 C53.2971786,39.8684395 41.5504226,38.5080124 48.4306429,32.2491582" id="Fill-7" fill="#EB922F"></path>
                <path d="M17.7155635,46.7488991 C17.728498,44.5999199 17.9878195,41.8507897 18.8654742,38.8459043 C13.1686052,32.5590918 13.0285338,28.9013158 13.0285338,28.9013158 C12.9966707,28.0628835 13.4799802,26.9181804 14.1020992,26.3602845 L18.6329683,22.2796387 C19.2550873,21.720472 19.4427957,20.6574199 19.0519207,19.9162064 L13.2361171,8.91269598 C12.8452421,8.17338869 12.0925159,7.5980189 10.672873,7.62597723 C-1.81020434,7.62597723 0.10568257,21.1060241 0.10568257,21.1060241 C0.740736141,29.8617481 7.18686114,40.9091022 13.6039623,47.3722429 C14.9286469,48.7066179 16.4479802,50.0400397 18.1004445,51.3248522 C18.0894028,51.2740189 17.6994742,49.5062897 17.7155635,46.7488991" id="Fill-10" fill="#DF522B"></path>
                <path d="M52.7837475,49.5469323 C52.784063,48.90675 52.499188,48.2316198 52.0133546,47.8332135 C52.0127237,47.8325781 52.0117773,47.831625 52.0108308,47.8309896 C51.9297535,47.7645885 51.8429975,47.7061302 51.7511939,47.6568854 L40.8265689,41.8008854 C40.0896166,41.4075625 39.0334023,41.596599 38.4784796,42.2215313 L34.4290273,46.7854115 C33.8731582,47.4128854 32.736813,47.8986615 31.9039558,47.8678438 C31.9039558,47.8678438 31.8872356,47.8672083 31.8541106,47.8640313 C31.490682,47.831625 29.1470094,47.5170938 25.2448844,44.6539063 C23.8258725,43.6130938 22.2008546,42.234875 20.3900213,40.4109115 C19.8262654,39.8438021 19.3110927,39.2976615 18.8287296,38.7655 C18.8271523,38.7639115 18.8255749,38.7620052 18.8239975,38.7604167 C17.9463427,41.7656198 17.6800808,44.51475 17.6671463,46.6634115 C17.651057,49.4208021 18.0450868,51.1885313 18.0450868,51.2393646 L18.0450868,51.2403177 C18.0450868,51.2403177 18.0526582,51.2406354 18.0529737,51.2409531 C23.0166761,55.0988854 29.1911761,58.5028125 34.9435689,60.0487813 C36.5543904,60.4818177 38.1339796,60.7693438 39.6435332,60.880224 C39.6435332,60.880224 39.7347058,60.8872135 39.897807,60.8913438 C40.3265392,60.903099 41.2676046,60.8961094 42.4597892,60.697224 C45.9180392,60.1205833 51.4843011,57.927125 52.7588249,49.8633698 C52.7607177,49.8519323 52.7600868,49.8398594 52.7616642,49.8281042 C52.7745987,49.735651 52.783432,49.6419271 52.7837475,49.5469323" id="Fill-11" fill="#C4242B"></path>
            </g>
        </g>
    </g>
</svg>